<svg width="225" height="241" viewBox="0 0 225 241" fill="none" xmlns="http://www.w3.org/2000/svg">
<path d="M221.262 171.035C220.182 168.002 218.919 165.067 217.718 162.347C215.869 158.165 213.932 153.973 212.059 149.922L211.911 149.601C195.204 113.412 177.272 76.7291 158.614 40.5709L157.822 39.0357C155.918 35.3433 153.951 31.5255 151.931 27.7742C149.537 23.0268 146.632 18.554 143.267 14.435C139.479 9.91497 134.743 6.27972 129.395 3.78561C124.047 1.2915 118.216 -0.000741044 112.312 3.1881e-07C106.409 0.000741681 100.579 1.29445 95.2305 3.78991C89.8831 6.28536 85.1486 9.92182 81.3621 14.4428C78.0009 18.5627 75.0971 23.0346 72.7019 27.7796C70.6651 31.5646 68.6792 35.4178 66.7588 39.1442L66.0233 40.5705C47.3646 76.7314 29.4327 113.415 12.7258 149.6L12.4824 150.126C10.6416 154.112 8.73841 158.233 6.92008 162.346C5.71851 165.063 4.45748 167.996 3.37585 171.037C0.277883 179.322 -0.709301 188.246 0.503039 197.006C1.7887 205.859 5.36853 214.224 10.888 221.271C16.4074 228.318 23.675 233.803 31.9709 237.183C38.237 239.719 44.9369 241.015 51.6981 241C53.822 240.999 55.9441 240.876 58.0538 240.63C66.6052 239.54 74.8526 236.757 82.3123 232.444C92.0975 226.945 101.762 218.887 112.318 207.371C122.875 218.887 132.539 226.945 142.325 232.444C149.784 236.758 158.032 239.54 166.583 240.63C168.693 240.876 170.815 240.999 172.939 241C179.7 241.015 186.399 239.719 192.665 237.183C200.961 233.803 208.229 228.318 213.749 221.271C219.269 214.224 222.849 205.86 224.135 197.006C225.346 188.245 224.358 179.321 221.262 171.035ZM112.318 183.589C99.2497 167.02 90.8634 151.633 87.9209 138.733C86.7155 133.9 86.4309 128.883 87.0822 123.944C87.5964 120.324 88.9261 116.867 90.9711 113.833C93.4874 110.569 96.7213 107.926 100.423 106.107C104.124 104.289 108.195 103.343 112.32 103.343C116.446 103.344 120.516 104.29 124.217 106.109C127.919 107.928 131.152 110.572 133.668 113.836C135.713 116.871 137.043 120.328 137.557 123.949C138.207 128.89 137.922 133.908 136.714 138.743C133.768 151.641 125.384 167.024 112.318 183.589ZM208.87 194.825C207.971 201.015 205.468 206.864 201.609 211.791C197.749 216.718 192.668 220.554 186.867 222.917C181.002 225.268 174.636 226.101 168.363 225.339C161.842 224.498 155.557 222.352 149.887 219.027C141.177 214.132 132.36 206.618 122.439 195.596C138.233 176.115 148.096 158.16 151.748 142.167C153.391 135.442 153.748 128.467 152.798 121.611C151.937 115.704 149.744 110.069 146.386 105.131C142.452 99.8034 137.32 95.4722 131.403 92.4875C125.486 89.5029 118.95 87.9477 112.32 87.9477C105.691 87.9477 99.1541 89.5021 93.2367 92.486C87.3193 95.4699 82.1873 99.8004 78.2532 105.128C74.8956 110.065 72.7033 115.698 71.8411 121.603C70.8912 128.458 71.2456 135.428 72.8855 142.152C76.535 158.151 86.3985 176.111 102.198 195.597C92.2767 206.618 83.4598 214.132 74.7497 219.028C69.0799 222.352 62.7958 224.499 56.2744 225.339C50.0002 226.101 43.6348 225.268 37.769 222.917C31.9685 220.554 26.8869 216.718 23.0278 211.792C19.1688 206.864 16.666 201.015 15.7674 194.825C14.9031 188.533 15.6387 182.124 17.9063 176.191C18.7683 173.767 19.777 171.389 21.0266 168.563C22.7945 164.565 24.6706 160.502 26.4854 156.573L26.7291 156.045C43.3425 120.062 61.175 83.5833 79.732 47.6196L80.4706 46.1879C82.3597 42.5215 84.3136 38.7307 86.2848 35.0678C88.1702 31.2924 90.4523 27.7279 93.0929 24.4344C95.4323 21.6074 98.3688 19.3313 101.691 17.7688C105.015 16.2062 108.643 15.3958 112.315 15.3955C115.988 15.3952 119.617 16.2051 122.939 17.767C126.263 19.329 129.199 21.6047 131.54 24.4313C134.182 27.7223 136.465 31.2856 138.348 35.0608C140.302 38.6912 142.238 42.4479 144.111 46.0806L144.905 47.6212C163.461 83.5811 181.293 120.059 197.908 156.048L198.058 156.372C199.904 160.367 201.813 164.497 203.61 168.564C204.862 171.394 205.872 173.775 206.732 176.189C208.998 182.124 209.734 188.532 208.87 194.825Z" fill="#FF4B6C"/>
</svg>
