<svg width="768" height="241" viewBox="0 0 768 241" fill="none" xmlns="http://www.w3.org/2000/svg">
<g clip-path="url(#clip0_30_2)">
<path d="M221.262 171.035C220.182 168.002 218.919 165.067 217.718 162.347C215.869 158.165 213.932 153.973 212.059 149.922L211.911 149.601C195.204 113.412 177.272 76.7291 158.614 40.5709L157.822 39.0357C155.918 35.3433 153.951 31.5255 151.931 27.7742C149.537 23.0268 146.632 18.554 143.267 14.435C139.479 9.91497 134.743 6.27972 129.395 3.78561C124.047 1.2915 118.216 -0.000741044 112.312 3.1881e-07C106.409 0.000741681 100.579 1.29445 95.2305 3.78991C89.8831 6.28536 85.1486 9.92182 81.3621 14.4428C78.0009 18.5627 75.0971 23.0346 72.7019 27.7796C70.6651 31.5646 68.6792 35.4178 66.7588 39.1442L66.0233 40.5705C47.3646 76.7314 29.4327 113.415 12.7258 149.6L12.4824 150.126C10.6416 154.112 8.73841 158.233 6.92008 162.346C5.71851 165.063 4.45748 167.996 3.37585 171.037C0.277883 179.322 -0.709301 188.246 0.503039 197.006C1.7887 205.859 5.36853 214.224 10.888 221.271C16.4074 228.318 23.675 233.803 31.9709 237.183C38.237 239.719 44.9369 241.015 51.6981 241C53.822 240.999 55.9441 240.876 58.0538 240.63C66.6052 239.54 74.8526 236.757 82.3123 232.444C92.0975 226.945 101.762 218.887 112.318 207.371C122.875 218.887 132.539 226.945 142.325 232.444C149.784 236.758 158.032 239.54 166.583 240.63C168.693 240.876 170.815 240.999 172.939 241C179.7 241.015 186.399 239.719 192.665 237.183C200.961 233.803 208.229 228.318 213.749 221.271C219.269 214.224 222.849 205.86 224.135 197.006C225.346 188.245 224.358 179.321 221.262 171.035ZM112.318 183.589C99.2497 167.02 90.8634 151.633 87.9209 138.733C86.7155 133.9 86.4309 128.883 87.0822 123.944C87.5964 120.324 88.9261 116.867 90.9711 113.833C93.4874 110.569 96.7213 107.926 100.423 106.107C104.124 104.289 108.195 103.343 112.32 103.343C116.446 103.344 120.516 104.29 124.217 106.109C127.919 107.928 131.152 110.572 133.668 113.836C135.713 116.871 137.043 120.328 137.557 123.949C138.207 128.89 137.922 133.908 136.714 138.743C133.768 151.641 125.384 167.024 112.318 183.589ZM208.87 194.825C207.971 201.015 205.468 206.864 201.609 211.791C197.749 216.718 192.668 220.554 186.867 222.917C181.002 225.268 174.636 226.101 168.363 225.339C161.842 224.498 155.557 222.352 149.887 219.027C141.177 214.132 132.36 206.618 122.439 195.596C138.233 176.115 148.096 158.16 151.748 142.167C153.391 135.442 153.748 128.467 152.798 121.611C151.937 115.704 149.744 110.069 146.386 105.131C142.452 99.8034 137.32 95.4722 131.403 92.4875C125.486 89.5029 118.95 87.9477 112.32 87.9477C105.691 87.9477 99.1541 89.5021 93.2367 92.486C87.3193 95.4699 82.1873 99.8004 78.2532 105.128C74.8956 110.065 72.7033 115.698 71.8411 121.603C70.8912 128.458 71.2456 135.428 72.8855 142.152C76.535 158.151 86.3985 176.111 102.198 195.597C92.2767 206.618 83.4598 214.132 74.7497 219.028C69.0799 222.352 62.7958 224.499 56.2744 225.339C50.0002 226.101 43.6348 225.268 37.769 222.917C31.9685 220.554 26.8869 216.718 23.0278 211.792C19.1688 206.864 16.666 201.015 15.7674 194.825C14.9031 188.533 15.6387 182.124 17.9063 176.191C18.7683 173.767 19.777 171.389 21.0266 168.563C22.7945 164.565 24.6706 160.502 26.4854 156.573L26.7291 156.045C43.3425 120.062 61.175 83.5833 79.732 47.6196L80.4706 46.1879C82.3597 42.5215 84.3136 38.7307 86.2848 35.0678C88.1702 31.2924 90.4523 27.7279 93.0929 24.4344C95.4323 21.6074 98.3688 19.3313 101.691 17.7688C105.015 16.2062 108.643 15.3958 112.315 15.3955C115.988 15.3952 119.617 16.2051 122.939 17.767C126.263 19.329 129.199 21.6047 131.54 24.4313C134.182 27.7223 136.465 31.2856 138.348 35.0608C140.302 38.6912 142.238 42.4479 144.111 46.0806L144.905 47.6212C163.461 83.5811 181.293 120.059 197.908 156.048L198.058 156.372C199.904 160.367 201.813 164.497 203.61 168.564C204.862 171.394 205.872 173.775 206.732 176.189C208.998 182.124 209.734 188.532 208.87 194.825Z" fill="#FF4B6C"/>
<path d="M313.861 181.651C307.845 181.651 302.31 180.444 297.255 178.032C292.201 175.62 287.87 172.242 284.018 167.899C280.168 163.558 277.28 158.491 275.114 152.943C272.948 147.153 271.985 140.881 271.985 134.126C271.985 127.372 273.189 120.858 275.354 115.068C277.521 109.278 280.649 104.212 284.5 99.6286C288.351 95.2861 292.923 91.6674 298.218 89.2551C303.513 86.8428 309.048 85.6363 315.305 85.6363C321.322 85.6363 326.617 86.8428 331.43 89.4961C336.244 91.9091 340.095 95.5271 343.223 100.111L343.945 88.2903H366.087V179.238H343.945L343.223 165.97C340.095 170.794 336.003 174.654 330.708 177.549C325.895 180.203 320.119 181.651 313.861 181.651ZM319.638 159.939C323.97 159.939 327.82 158.732 331.43 156.561C334.8 154.149 337.447 151.013 339.613 147.153C341.539 143.293 342.501 138.71 342.501 133.644C342.501 128.577 341.539 123.994 339.613 120.134C337.688 116.274 334.8 113.138 331.43 110.726C328.061 108.313 323.97 107.348 319.638 107.348C315.305 107.348 311.455 108.555 307.845 110.726C304.476 113.138 301.829 116.274 299.662 120.134C297.737 123.994 296.774 128.577 296.774 133.644C296.774 138.71 297.737 143.293 299.662 147.153C301.588 151.013 304.476 154.149 307.845 156.561C311.455 158.732 315.305 159.939 319.638 159.939ZM403.872 63.6835C403.872 66.3371 403.391 68.7496 402.187 70.6795C400.983 72.6095 399.299 74.2981 397.133 75.5045C394.967 76.7103 392.56 77.193 390.154 77.193C387.747 77.193 385.34 76.7103 383.174 75.5045C381.008 74.2981 379.323 72.6095 378.12 70.6795C376.916 68.5083 376.435 66.3371 376.435 63.6835C376.435 61.0299 376.916 58.6174 378.12 56.6875C379.323 54.5163 381.008 53.0689 383.174 51.8627C385.34 50.6565 387.747 50.174 390.154 50.174C392.56 50.174 394.967 50.6565 397.133 51.8627C399.299 53.0689 400.983 54.7576 402.187 56.6875C403.15 58.6174 403.872 60.7886 403.872 63.6835ZM378.12 178.997V88.0486H402.187V178.997H378.12ZM466.446 111.932V112.173C465.242 111.691 463.798 111.449 462.594 111.208C461.151 110.967 459.947 110.967 458.504 110.967C451.765 110.967 446.71 112.896 443.341 116.998C439.731 121.099 438.046 126.889 438.046 134.367V178.997H413.98V88.0486H436.121L436.843 101.8C439.25 96.9746 442.138 93.3559 446.229 90.7026C450.08 88.0486 454.652 86.8428 459.947 86.8428C461.632 86.8428 463.316 87.0838 464.76 87.3248C465.483 87.5666 465.964 87.5666 466.446 87.8076V111.932ZM476.072 178.997V50.6565H500.139V99.6286C503.508 95.2861 507.359 91.9084 512.172 89.2551C516.986 86.8428 522.281 85.3953 528.297 85.3953C534.313 85.3953 539.849 86.6011 544.903 89.0141C549.957 91.4264 554.289 94.8034 558.14 99.1459C561.991 103.488 564.878 108.555 567.045 114.103C569.211 119.893 570.173 126.165 570.173 132.92C570.173 139.675 568.97 146.188 566.804 151.978C564.638 157.768 561.51 162.834 557.658 167.417C553.808 171.76 549.235 175.378 543.941 177.791C538.646 180.203 533.11 181.409 526.853 181.409C520.837 181.409 515.542 180.203 510.728 177.549C505.915 175.137 502.064 171.518 498.936 166.935L498.214 178.756L476.072 178.997ZM522.521 159.939C526.853 159.939 530.704 158.732 534.313 156.561C537.683 154.149 540.33 151.013 542.496 147.153C544.422 143.293 545.385 138.71 545.385 133.644C545.385 128.577 544.422 123.994 542.496 120.134C540.33 116.274 537.683 113.138 534.313 110.726C530.945 108.313 526.853 107.348 522.521 107.348C518.189 107.348 514.339 108.555 510.728 110.726C507.359 113.138 504.712 116.274 502.545 120.134C500.62 123.994 499.658 128.577 499.658 133.644C499.658 138.71 500.62 143.293 502.545 147.153C504.471 151.013 507.359 154.149 510.728 156.561C514.339 158.732 518.189 159.939 522.521 159.939ZM579.319 178.997V88.0486H601.46L602.182 99.8696C604.829 95.5271 608.44 92.1501 613.012 89.4961C617.585 86.8428 622.88 85.6363 628.896 85.6363C635.635 85.6363 641.411 87.3248 646.225 90.4616C651.278 93.5976 655.13 98.1811 657.777 103.971C660.424 109.76 661.868 116.756 661.868 124.717V179.238H637.801V127.854C637.801 121.581 636.357 116.515 633.469 112.896C630.581 109.278 626.73 107.348 621.676 107.348C618.066 107.348 614.938 108.072 612.049 109.76C609.402 111.449 607.237 113.62 605.551 116.757C603.867 119.651 603.145 123.27 603.145 126.889V178.997H579.319ZM673.901 178.997V50.6565H697.968V99.6286C701.338 95.2861 705.188 91.9084 710.002 89.2551C714.815 86.8428 720.11 85.3953 726.127 85.3953C732.143 85.3953 737.678 86.6011 742.733 89.0141C747.787 91.4264 752.118 94.8034 755.968 99.1459C759.823 103.488 762.707 108.555 764.875 114.103C767.044 119.893 768 126.165 768 132.92C768 139.675 766.803 146.188 764.634 151.978C762.466 157.768 759.341 162.834 755.486 167.417C751.637 171.76 747.064 175.378 741.77 177.791C736.475 180.203 730.94 181.409 724.683 181.409C718.666 181.409 713.371 180.203 708.558 177.549C703.744 175.137 699.893 171.518 696.765 166.935L696.043 178.756L673.901 178.997ZM720.591 159.939C724.923 159.939 728.774 158.732 732.384 156.561C735.753 154.149 738.4 151.013 740.567 147.153C742.492 143.293 743.455 138.71 743.455 133.644C743.455 128.577 742.492 123.994 740.567 120.134C738.641 116.274 735.753 113.138 732.384 110.726C729.014 108.313 724.923 107.348 720.591 107.348C716.259 107.348 712.408 108.555 708.798 110.726C705.429 113.138 702.782 116.274 700.616 120.134C698.449 123.994 697.727 128.577 697.727 133.644C697.727 138.71 698.69 143.293 700.616 147.153C702.541 151.013 705.429 154.149 708.798 156.561C712.408 158.732 716.018 159.939 720.591 159.939Z" fill="#FF4B6C"/>
</g>
<defs>
<clipPath id="clip0_30_2">
<rect width="768" height="241" fill="white"/>
</clipPath>
</defs>
</svg>
