<svg width="97" height="97" viewBox="0 0 97 97" fill="none" xmlns="http://www.w3.org/2000/svg">
  <path d="M82.4347 79.0704C81.3712 80.1263 79.9334 80.7189 78.4347 80.7189C76.9361 80.7189 75.4982 80.1263 74.4347 79.0704L57.1024 61.738C51.2203 65.6354 44.1003 67.2091 37.1236 66.1535C30.1469 65.0979 23.811 61.4885 19.3452 56.0254C14.8794 50.5623 12.6021 43.6352 12.9552 36.5879C13.3082 29.5407 16.2664 22.8758 21.2558 17.8864C26.2452 12.8969 32.9101 9.93875 39.9574 9.58572C47.0046 9.23269 53.9318 11.51 59.3948 15.9758C64.8579 20.4416 68.4674 26.7775 69.5229 33.7541C70.5785 40.7308 69.0049 47.8509 65.1074 53.7329L82.4347 71.0653C83.4922 72.129 84.0857 73.5679 84.0857 75.0678C84.0857 76.5677 83.4922 78.0067 82.4347 79.0704ZM49.9601 59.1445C55.2417 57.0099 59.5386 52.9844 62.0128 47.8531C64.4871 42.7219 64.9611 36.853 63.3425 31.3912C61.7238 25.9294 58.1286 21.2664 53.2581 18.3118C48.3876 15.3572 42.5911 14.3229 36.9993 15.4107C31.4076 16.4984 26.4215 19.6302 23.0137 24.1951C19.606 28.7601 18.021 34.4307 18.5678 40.101C19.1147 45.7713 21.7542 51.0346 25.9716 54.8641C30.1889 58.6937 35.6816 60.8149 41.3782 60.8139C44.3183 60.8186 47.2364 60.2516 49.9601 59.1445Z" fill="currentColor"/>
</svg>
